<svg width="55" height="55" viewBox="0 0 55 55" fill="none" xmlns="http://www.w3.org/2000/svg">
<g opacity="0.5">
<path d="M47 0H8C3.58172 0 0 3.58172 0 8V47C0 51.4183 3.58172 55 8 55H47C51.4183 55 55 51.4183 55 47V8C55 3.58172 51.4183 0 47 0Z" fill="#1E959B"/>
<path d="M31.9184 20.8893L30.8028 21.4454L30.2527 20.4839L30.8258 20.1988V15.153L27.0016 13.241L23.1775 15.153V20.1988L23.7506 20.4856L23.2004 21.4454L22.0849 20.8893L18.2607 22.8014V27.8471L22.0849 29.7591L25.909 27.8471V26.4168H28.0943V27.8471L31.9184 29.7591L35.7426 27.8471V22.8014L31.9184 20.8893ZM28.7302 20.025L27.5479 20.6161V17.4672L29.7332 16.3746V19.5235L29.7091 19.5355L29.1148 18.4975L28.1664 19.0406L28.7302 20.025ZM27.0016 14.4625L29.0579 15.4907L27.0016 16.5188L24.9453 15.4907L27.0016 14.4625ZM24.2701 16.3746L26.4553 17.4672V20.6161L25.2731 20.025L25.8369 19.0417L24.8885 18.4954L24.2941 19.5333L24.2701 19.5235V16.3746ZM21.5385 28.2644L19.3533 27.1718V24.0229L21.5385 25.1155V28.2644ZM20.0286 23.139L22.0849 22.1108L24.1412 23.139L22.0849 24.1671L20.0286 23.139ZM24.8164 25.3242H23.7238V26.4168H24.8164V27.1718L22.6312 28.2644V25.1155L24.8164 24.0229V25.3242ZM28.0943 25.3242H25.909V22.8014L24.1794 21.9371L24.7295 20.9756L27.0016 22.1108L29.2737 20.9751L29.8239 21.9366L28.0943 22.8014V25.3242ZM31.3721 28.2644L29.1869 27.1718V26.4168H30.2795V25.3242H29.1869V24.0229L31.3721 25.1155V28.2644ZM29.8621 23.139L31.9184 22.1108L33.9747 23.139L31.9184 24.1671L29.8621 23.139ZM34.65 27.1718L32.4647 28.2644V25.1155L34.65 24.0229V27.1718Z" fill="white"/>
<path d="M21.5384 18.7686H20.4458V19.8612H21.5384V18.7686Z" fill="white"/>
<path d="M27.5482 29.1484H26.4556V30.2411H27.5482V29.1484Z" fill="white"/>
<path d="M33.0111 18.7686H31.9185V19.8612H33.0111V18.7686Z" fill="white"/>
<path d="M8.02986 38.5704C8.02986 37.7073 7.71219 37.2757 7.07685 37.2757C6.93899 37.2757 6.80113 37.2937 6.66328 37.3297C6.53141 37.3656 6.42352 37.4106 6.33961 37.4645V39.901C6.40554 39.913 6.48946 39.925 6.59135 39.937C6.69324 39.943 6.80413 39.946 6.924 39.946C7.28963 39.946 7.56534 39.8201 7.75115 39.5684C7.93695 39.3166 8.02986 38.984 8.02986 38.5704ZM9.39644 38.6064C9.39644 38.984 9.3395 39.3256 9.22562 39.6313C9.11773 39.937 8.95889 40.1977 8.74911 40.4135C8.53933 40.6293 8.2816 40.7971 7.97591 40.917C7.67023 41.0308 7.32259 41.0878 6.933 41.0878C6.77116 41.0878 6.60034 41.0788 6.42053 41.0608C6.24671 41.0488 6.07289 41.0308 5.89907 41.0069C5.73124 40.9829 5.56941 40.9559 5.41357 40.926C5.25773 40.89 5.11988 40.854 5 40.8181V34.2099L6.33961 33.9941V36.3497C6.48946 36.2838 6.64529 36.2328 6.80713 36.1969C6.96896 36.1609 7.14278 36.1429 7.32859 36.1429C7.66424 36.1429 7.96093 36.2029 8.21866 36.3227C8.4764 36.4366 8.69217 36.6014 8.86599 36.8172C9.03981 37.033 9.17167 37.2937 9.26158 37.5994C9.35149 37.8991 9.39644 38.2347 9.39644 38.6064Z" fill="white"/>
<path d="M12.3139 41.0608C11.9243 41.0548 11.6066 41.0129 11.3608 40.9349C11.1211 40.857 10.9293 40.7491 10.7854 40.6113C10.6476 40.4674 10.5517 40.2966 10.4977 40.0988C10.4498 39.895 10.4258 39.6673 10.4258 39.4155V34.2099L11.7654 33.9941V39.1458C11.7654 39.2657 11.7744 39.3736 11.7924 39.4695C11.8104 39.5654 11.8433 39.6463 11.8913 39.7122C11.9452 39.7781 12.0202 39.8321 12.1161 39.874C12.212 39.916 12.3408 39.943 12.5027 39.955L12.3139 41.0608Z" fill="white"/>
<path d="M17.694 38.5974C17.694 38.969 17.6401 39.3106 17.5322 39.6223C17.4243 39.928 17.2685 40.1917 17.0647 40.4135C16.8609 40.6293 16.6152 40.7971 16.3275 40.917C16.0457 41.0368 15.7281 41.0968 15.3744 41.0968C15.0268 41.0968 14.7091 41.0368 14.4214 40.917C14.1397 40.7971 13.897 40.6293 13.6932 40.4135C13.4894 40.1917 13.3306 39.928 13.2167 39.6223C13.1028 39.3106 13.0459 38.969 13.0459 38.5974C13.0459 38.2258 13.1028 37.8871 13.2167 37.5814C13.3366 37.2757 13.4984 37.015 13.7022 36.7992C13.912 36.5835 14.1577 36.4156 14.4394 36.2958C14.7271 36.1759 15.0388 36.1159 15.3744 36.1159C15.7161 36.1159 16.0278 36.1759 16.3095 36.2958C16.5972 36.4156 16.8429 36.5835 17.0467 36.7992C17.2505 37.015 17.4093 37.2757 17.5232 37.5814C17.6371 37.8871 17.694 38.2258 17.694 38.5974ZM16.3275 38.5974C16.3275 38.1838 16.2435 37.8601 16.0757 37.6264C15.9139 37.3866 15.6801 37.2667 15.3744 37.2667C15.0688 37.2667 14.832 37.3866 14.6642 37.6264C14.4963 37.8601 14.4124 38.1838 14.4124 38.5974C14.4124 39.0109 14.4963 39.3406 14.6642 39.5863C14.832 39.8261 15.0688 39.946 15.3744 39.946C15.6801 39.946 15.9139 39.8261 16.0757 39.5863C16.2435 39.3406 16.3275 39.0109 16.3275 38.5974Z" fill="white"/>
<path d="M18.5068 38.6064C18.5068 38.2647 18.5607 37.944 18.6686 37.6444C18.7825 37.3387 18.9443 37.0749 19.1541 36.8532C19.3639 36.6254 19.6186 36.4456 19.9183 36.3137C20.218 36.1819 20.5597 36.1159 20.9433 36.1159C21.195 36.1159 21.4258 36.1399 21.6355 36.1879C21.8453 36.2298 22.0491 36.2928 22.2469 36.3767L21.9682 37.4466C21.8423 37.3986 21.7045 37.3567 21.5546 37.3207C21.4048 37.2847 21.237 37.2667 21.0511 37.2667C20.6556 37.2667 20.3589 37.3896 20.1611 37.6354C19.9693 37.8811 19.8734 38.2048 19.8734 38.6064C19.8734 39.0319 19.9633 39.3616 20.1431 39.5953C20.3289 39.8291 20.6496 39.946 21.1051 39.946C21.2669 39.946 21.4407 39.931 21.6266 39.901C21.8124 39.871 21.9832 39.8231 22.139 39.7572L22.3278 40.854C22.172 40.92 21.9772 40.9769 21.7434 41.0249C21.5097 41.0728 21.2519 41.0968 20.9702 41.0968C20.5387 41.0968 20.1671 41.0338 19.8554 40.908C19.5437 40.7761 19.286 40.5993 19.0822 40.3775C18.8844 40.1558 18.7375 39.895 18.6416 39.5953C18.5517 39.2896 18.5068 38.96 18.5068 38.6064Z" fill="white"/>
<path d="M24.5671 37.95C24.699 37.8062 24.8338 37.6563 24.9717 37.5005C25.1155 37.3447 25.2534 37.1918 25.3853 37.042C25.5171 36.8861 25.64 36.7393 25.7539 36.6014C25.8737 36.4636 25.9756 36.3437 26.0596 36.2418H27.6509C27.3332 36.6074 27.0216 36.9581 26.7159 37.2937C26.4162 37.6234 26.0865 37.965 25.7269 38.3187C25.9067 38.4805 26.0925 38.6753 26.2843 38.9031C26.4761 39.1248 26.6619 39.3556 26.8417 39.5953C27.0216 39.8351 27.1864 40.0748 27.3362 40.3146C27.4861 40.5543 27.6119 40.7731 27.7138 40.9709H26.1764C26.0805 40.8151 25.9696 40.6442 25.8438 40.4584C25.7239 40.2666 25.595 40.0778 25.4572 39.892C25.3193 39.7002 25.1725 39.5174 25.0166 39.3436C24.8668 39.1698 24.7169 39.0229 24.5671 38.9031V40.9709H23.2275V34.2099L24.5671 33.9941V37.95Z" fill="white"/>
<path d="M27.8838 38.6064C27.8838 38.2647 27.9377 37.944 28.0456 37.6444C28.1595 37.3387 28.3213 37.0749 28.5311 36.8532C28.7409 36.6254 28.9956 36.4456 29.2953 36.3137C29.595 36.1819 29.9367 36.1159 30.3203 36.1159C30.572 36.1159 30.8028 36.1399 31.0125 36.1879C31.2223 36.2298 31.4261 36.2928 31.6239 36.3767L31.3452 37.4466C31.2193 37.3986 31.0815 37.3567 30.9316 37.3207C30.7818 37.2847 30.614 37.2667 30.4281 37.2667C30.0326 37.2667 29.7359 37.3896 29.5381 37.6354C29.3463 37.8811 29.2504 38.2048 29.2504 38.6064C29.2504 39.0319 29.3403 39.3616 29.5201 39.5953C29.7059 39.8291 30.0266 39.946 30.4821 39.946C30.6439 39.946 30.8177 39.931 31.0035 39.901C31.1894 39.871 31.3602 39.8231 31.516 39.7572L31.7048 40.854C31.549 40.92 31.3542 40.9769 31.1204 41.0249C30.8867 41.0728 30.6289 41.0968 30.3472 41.0968C29.9157 41.0968 29.5441 41.0338 29.2324 40.908C28.9207 40.7761 28.663 40.5993 28.4592 40.3775C28.2614 40.1558 28.1145 39.895 28.0186 39.5953C27.9287 39.2896 27.8838 38.96 27.8838 38.6064Z" fill="white"/>
<path d="M32.6045 40.9709V34.2099L33.9441 33.9941V36.2598C34.034 36.2298 34.1479 36.2029 34.2857 36.1789C34.4296 36.1489 34.5675 36.1339 34.6993 36.1339C35.0829 36.1339 35.4006 36.1879 35.6523 36.2958C35.9101 36.3976 36.1138 36.5445 36.2637 36.7363C36.4195 36.9281 36.5274 37.1559 36.5874 37.4196C36.6533 37.6833 36.6863 37.977 36.6863 38.3007V40.9709H35.3466V38.4625C35.3466 38.031 35.2897 37.7253 35.1758 37.5455C35.0679 37.3656 34.8641 37.2757 34.5645 37.2757C34.4446 37.2757 34.3307 37.2877 34.2228 37.3117C34.1209 37.3297 34.028 37.3507 33.9441 37.3746V40.9709H32.6045Z" fill="white"/>
<path d="M39.7058 40.0359C39.8377 40.0359 39.9636 40.0329 40.0834 40.0269C40.2033 40.0209 40.2992 40.0119 40.3711 39.9999V38.984C40.3172 38.972 40.2363 38.96 40.1284 38.948C40.0205 38.936 39.9216 38.93 39.8317 38.93C39.7058 38.93 39.586 38.939 39.4721 38.957C39.3642 38.969 39.2683 38.996 39.1844 39.0379C39.1005 39.0799 39.0345 39.1368 38.9866 39.2087C38.9386 39.2807 38.9146 39.3706 38.9146 39.4785C38.9146 39.6882 38.9836 39.8351 39.1214 39.919C39.2653 39.9969 39.4601 40.0359 39.7058 40.0359ZM39.5979 36.1159C39.9935 36.1159 40.3232 36.1609 40.5869 36.2508C40.8506 36.3407 41.0604 36.4696 41.2163 36.6374C41.3781 36.8052 41.492 37.009 41.5579 37.2488C41.6238 37.4885 41.6568 37.7552 41.6568 38.0489V40.836C41.465 40.878 41.1983 40.926 40.8566 40.9799C40.515 41.0398 40.1014 41.0698 39.6159 41.0698C39.3102 41.0698 39.0315 41.0428 38.7798 40.9889C38.534 40.9349 38.3213 40.848 38.1415 40.7282C37.9616 40.6023 37.8238 40.4405 37.7279 40.2427C37.632 40.0449 37.584 39.8021 37.584 39.5144C37.584 39.2387 37.638 39.0049 37.7459 38.8131C37.8597 38.6213 38.0096 38.4685 38.1954 38.3546C38.3812 38.2407 38.594 38.1598 38.8337 38.1119C39.0735 38.0579 39.3222 38.031 39.58 38.031C39.7538 38.031 39.9066 38.0399 40.0385 38.0579C40.1763 38.0699 40.2872 38.0879 40.3711 38.1119V37.986C40.3711 37.7582 40.3022 37.5754 40.1644 37.4376C40.0265 37.2997 39.7867 37.2308 39.4451 37.2308C39.2173 37.2308 38.9926 37.2488 38.7708 37.2847C38.549 37.3147 38.3572 37.3597 38.1954 37.4196L38.0246 36.3407C38.1025 36.3167 38.1984 36.2928 38.3123 36.2688C38.4321 36.2388 38.561 36.2148 38.6989 36.1969C38.8367 36.1729 38.9806 36.1549 39.1304 36.1429C39.2863 36.1249 39.4421 36.1159 39.5979 36.1159Z" fill="white"/>
<path d="M44.2079 40.9709H42.8683V36.2418H44.2079V40.9709ZM44.3337 34.8752C44.3337 35.121 44.2528 35.3158 44.091 35.4596C43.9351 35.5975 43.7493 35.6664 43.5336 35.6664C43.3178 35.6664 43.129 35.5975 42.9672 35.4596C42.8113 35.3158 42.7334 35.121 42.7334 34.8752C42.7334 34.6295 42.8113 34.4377 42.9672 34.2998C43.129 34.156 43.3178 34.084 43.5336 34.084C43.7493 34.084 43.9351 34.156 44.091 34.2998C44.2528 34.4377 44.3337 34.6295 44.3337 34.8752Z" fill="white"/>
<path d="M45.4668 36.4036C45.6946 36.3377 45.9883 36.2778 46.3479 36.2238C46.7075 36.1639 47.0851 36.1339 47.4807 36.1339C47.8823 36.1339 48.215 36.1879 48.4787 36.2958C48.7484 36.3976 48.9612 36.5445 49.117 36.7363C49.2729 36.9281 49.3838 37.1559 49.4497 37.4196C49.5156 37.6833 49.5486 37.977 49.5486 38.3007V40.9709H48.209V38.4625C48.209 38.031 48.152 37.7253 48.0382 37.5455C47.9243 37.3656 47.7115 37.2757 47.3998 37.2757C47.3039 37.2757 47.202 37.2817 47.0941 37.2937C46.9863 37.2997 46.8903 37.3087 46.8064 37.3207V40.9709H45.4668V36.4036Z" fill="white"/>
</g>
</svg>
