<svg width="55" height="55" viewBox="0 0 55 55" fill="none" xmlns="http://www.w3.org/2000/svg">
<g opacity="0.5">
<path d="M47 0H8C3.58172 0 0 3.58172 0 8V47C0 51.4183 3.58172 55 8 55H47C51.4183 55 55 51.4183 55 47V8C55 3.58172 51.4183 0 47 0Z" fill="#1E959B"/>
<path d="M27.5004 9.16675C21.0247 9.16675 18.6498 12.3517 18.6498 14.707V18.6495H26.8682V19.9139H14.7073C13.3075 19.9139 11.8714 20.4443 10.8327 21.687C9.79389 22.9296 9.16699 24.8267 9.16699 27.5001C9.16699 30.1734 9.79389 32.0706 10.8327 33.3132C11.8714 34.5558 13.3075 35.0863 14.7073 35.0863H18.6498V40.2932C18.6498 42.6484 21.0247 45.8334 27.5004 45.8334C33.976 45.8334 36.3509 42.6484 36.3509 40.2932V36.3507H28.1325V35.0863H40.2934C41.6932 35.0863 43.1293 34.5558 44.168 33.3132C45.2068 32.0706 45.8337 30.1734 45.8337 27.5001C45.8337 24.8267 45.2068 22.9296 44.168 21.687C43.1293 20.4443 41.6932 19.9139 40.2934 19.9139H36.3522V14.707C36.3518 13.4978 35.7597 12.082 34.3482 10.9979C32.9367 9.91369 30.7355 9.16675 27.5004 9.16675ZM27.5004 10.4311C30.5409 10.4311 32.4488 11.1334 33.5777 12.0005C34.7066 12.8675 35.0875 13.9046 35.0878 14.707V19.9139H35.0866V24.2811C35.0866 24.8002 34.8997 25.2943 34.5902 25.7085C34.1772 26.2607 33.547 26.6712 32.8554 26.8136C32.6825 26.8492 32.5063 26.8679 32.3282 26.8679H22.6725C20.5576 26.8679 18.6498 28.563 18.6498 30.719V33.8219H14.7073C13.6124 33.8219 12.5949 33.4491 11.8032 32.502C11.0115 31.5549 10.4314 29.9759 10.4314 27.5001C10.4314 25.0243 11.0115 23.4453 11.8032 22.4982C12.5949 21.5511 13.6124 21.1782 14.7073 21.1782H28.1325V17.3851H19.9142V14.707C19.9142 13.1996 21.4246 10.4311 27.5004 10.4311ZM24.0233 12.9599C23.6042 12.9599 23.2022 13.1264 22.9058 13.4228C22.6094 13.7192 22.4429 14.1211 22.4429 14.5403C22.4429 14.9595 22.6094 15.3615 22.9058 15.6579C23.2022 15.9543 23.6042 16.1208 24.0233 16.1208C24.4425 16.1208 24.8445 15.9543 25.1409 15.6579C25.4373 15.3615 25.6038 14.9595 25.6038 14.5403C25.6038 14.1211 25.4373 13.7192 25.1409 13.4228C24.8445 13.1264 24.4425 12.9599 24.0233 12.9599ZM36.3522 21.1782H40.2934C41.3883 21.1782 42.4058 21.5511 43.1975 22.4982C43.9893 23.4453 44.5693 25.0243 44.5693 27.5001C44.5693 29.9759 43.9893 31.5549 43.1975 32.502C42.4058 33.4491 41.3883 33.8219 40.2934 33.8219H26.8682V37.615H35.0866V40.2932C35.0866 41.8005 33.5761 44.569 27.5004 44.569C21.4246 44.569 19.9142 41.8005 19.9142 40.2932V30.719C19.9142 30.546 19.9354 30.3757 19.9747 30.2103C20.2493 29.0528 21.4254 28.1323 22.6725 28.1323H32.3282C32.4604 28.1323 32.5919 28.1255 32.722 28.1125C33.5027 28.0349 34.2389 27.729 34.8421 27.2618H34.8433C34.9436 27.184 35.0398 27.1013 35.1322 27.0148H35.1335C35.8751 26.3216 36.3522 25.3592 36.3522 24.2811V21.1782ZM17.1558 22.4858C16.9883 22.4884 16.8287 22.5574 16.7121 22.6775C16.5954 22.7977 16.5312 22.9592 16.5334 23.1267V24.391C16.5323 24.4748 16.5477 24.558 16.579 24.6357C16.6102 24.7134 16.6566 24.7842 16.7154 24.8439C16.7742 24.9035 16.8443 24.9509 16.9216 24.9832C16.9989 25.0156 17.0819 25.0322 17.1656 25.0322C17.2494 25.0322 17.3324 25.0156 17.4096 24.9832C17.4869 24.9509 17.557 24.9035 17.6158 24.8439C17.6747 24.7842 17.721 24.7134 17.7523 24.6357C17.7835 24.558 17.799 24.4748 17.7978 24.391V23.1267C17.799 23.0421 17.7832 22.9581 17.7513 22.8798C17.7194 22.8014 17.6721 22.7303 17.6123 22.6705C17.5524 22.6107 17.4811 22.5636 17.4027 22.5319C17.3243 22.5002 17.2403 22.4845 17.1558 22.4858ZM20.0413 22.4858C19.8739 22.4884 19.7143 22.5574 19.5976 22.6775C19.481 22.7977 19.4167 22.9592 19.419 23.1267V24.391C19.4178 24.4748 19.4333 24.558 19.4646 24.6357C19.4958 24.7134 19.5422 24.7842 19.601 24.8439C19.6598 24.9035 19.7299 24.9509 19.8072 24.9832C19.8845 25.0156 19.9674 25.0322 20.0512 25.0322C20.135 25.0322 20.2179 25.0156 20.2952 24.9832C20.3725 24.9509 20.4426 24.9035 20.5014 24.8439C20.5602 24.7842 20.6066 24.7134 20.6379 24.6357C20.6691 24.558 20.6846 24.4748 20.6834 24.391V23.1267C20.6845 23.0421 20.6687 22.9581 20.6369 22.8798C20.605 22.8014 20.5577 22.7303 20.4978 22.6705C20.438 22.6107 20.3667 22.5636 20.2883 22.5319C20.2099 22.5002 20.1259 22.4845 20.0413 22.4858ZM22.9281 22.4858C22.7607 22.4884 22.6011 22.5574 22.4844 22.6775C22.3678 22.7977 22.3035 22.9592 22.3058 23.1267V24.391C22.3046 24.4748 22.3201 24.558 22.3514 24.6357C22.3826 24.7134 22.429 24.7842 22.4878 24.8439C22.5466 24.9035 22.6167 24.9509 22.694 24.9832C22.7713 25.0156 22.8542 25.0322 22.938 25.0322C23.0218 25.0322 23.1047 25.0156 23.182 24.9832C23.2593 24.9509 23.3294 24.9035 23.3882 24.8439C23.4471 24.7842 23.4934 24.7134 23.5247 24.6357C23.5559 24.558 23.5714 24.4748 23.5702 24.391V23.1267C23.5714 23.0421 23.5555 22.9581 23.5237 22.8798C23.4918 22.8014 23.4445 22.7303 23.3846 22.6705C23.3248 22.6107 23.2535 22.5636 23.1751 22.5319C23.0967 22.5002 23.0127 22.4845 22.9281 22.4858ZM25.8137 22.4858C25.6463 22.4884 25.4867 22.5574 25.37 22.6775C25.2533 22.7977 25.1891 22.9592 25.1914 23.1267V24.391C25.1902 24.4748 25.2057 24.558 25.2369 24.6357C25.2682 24.7134 25.3146 24.7842 25.3734 24.8439C25.4322 24.9035 25.5023 24.9509 25.5796 24.9832C25.6569 25.0156 25.7398 25.0322 25.8236 25.0322C25.9074 25.0322 25.9903 25.0156 26.0676 24.9832C26.1449 24.9509 26.215 24.9035 26.2738 24.8439C26.3326 24.7842 26.379 24.7134 26.4102 24.6357C26.4415 24.558 26.457 24.4748 26.4558 24.391V23.1267C26.4569 23.0421 26.4411 22.9581 26.4092 22.8798C26.3774 22.8014 26.3301 22.7303 26.2702 22.6705C26.2103 22.6107 26.1391 22.5636 26.0607 22.5319C25.9823 22.5002 25.8983 22.4845 25.8137 22.4858ZM31.0638 30.0202C30.8964 30.0228 30.7368 30.0917 30.6201 30.2119C30.5034 30.332 30.4392 30.4935 30.4415 30.661V31.9254C30.4403 32.0091 30.4558 32.0923 30.487 32.17C30.5183 32.2478 30.5646 32.3185 30.6235 32.3782C30.6823 32.4379 30.7524 32.4852 30.8297 32.5176C30.907 32.5499 30.9899 32.5666 31.0737 32.5666C31.1575 32.5666 31.2404 32.5499 31.3177 32.5176C31.395 32.4852 31.4651 32.4379 31.5239 32.3782C31.5827 32.3185 31.6291 32.2478 31.6603 32.17C31.6916 32.0923 31.707 32.0091 31.7059 31.9254V30.661C31.707 30.5764 31.6912 30.4925 31.6593 30.4141C31.6275 30.3358 31.5802 30.2646 31.5203 30.2048C31.4604 30.1451 31.3892 30.098 31.3108 30.0662C31.2324 30.0345 31.1484 30.0189 31.0638 30.0202ZM33.9494 30.0202C33.7819 30.0228 33.6224 30.0917 33.5057 30.2119C33.389 30.332 33.3248 30.4935 33.3271 30.661V31.9254C33.3259 32.0091 33.3414 32.0923 33.3726 32.17C33.4038 32.2478 33.4502 32.3185 33.509 32.3782C33.5679 32.4379 33.6379 32.4852 33.7152 32.5176C33.7925 32.5499 33.8755 32.5666 33.9593 32.5666C34.043 32.5666 34.126 32.5499 34.2033 32.5176C34.2806 32.4852 34.3506 32.4379 34.4095 32.3782C34.4683 32.3185 34.5147 32.2478 34.5459 32.17C34.5771 32.0923 34.5926 32.0091 34.5914 31.9254V30.661C34.5926 30.5764 34.5768 30.4925 34.5449 30.4141C34.513 30.3358 34.4658 30.2646 34.4059 30.2048C34.346 30.1451 34.2748 30.098 34.1963 30.0662C34.1179 30.0345 34.034 30.0189 33.9494 30.0202ZM36.8362 30.0202C36.6687 30.0228 36.5092 30.0917 36.3925 30.2119C36.2758 30.332 36.2116 30.4935 36.2139 30.661V31.9254C36.2127 32.0091 36.2282 32.0923 36.2594 32.17C36.2906 32.2478 36.337 32.3185 36.3958 32.3782C36.4547 32.4379 36.5248 32.4852 36.602 32.5176C36.6793 32.5499 36.7623 32.5666 36.8461 32.5666C36.9298 32.5666 37.0128 32.5499 37.0901 32.5176C37.1674 32.4852 37.2375 32.4379 37.2963 32.3782C37.3551 32.3185 37.4015 32.2478 37.4327 32.17C37.464 32.0923 37.4794 32.0091 37.4782 31.9254V30.661C37.4794 30.5764 37.4636 30.4925 37.4317 30.4141C37.3998 30.3358 37.3526 30.2646 37.2927 30.2048C37.2328 30.1451 37.1616 30.098 37.0832 30.0662C37.0047 30.0345 36.9208 30.0189 36.8362 30.0202ZM39.7218 30.0202C39.5543 30.0228 39.3947 30.0917 39.2781 30.2119C39.1614 30.332 39.0972 30.4935 39.0995 30.661V31.9254C39.0983 32.0091 39.1137 32.0923 39.145 32.17C39.1762 32.2478 39.2226 32.3185 39.2814 32.3782C39.3402 32.4379 39.4103 32.4852 39.4876 32.5176C39.5649 32.5499 39.6479 32.5666 39.7316 32.5666C39.8154 32.5666 39.8984 32.5499 39.9756 32.5176C40.0529 32.4852 40.123 32.4379 40.1818 32.3782C40.2407 32.3185 40.287 32.2478 40.3183 32.17C40.3495 32.0923 40.365 32.0091 40.3638 31.9254V30.661C40.365 30.5764 40.3492 30.4925 40.3173 30.4141C40.2854 30.3358 40.2381 30.2646 40.1783 30.2048C40.1184 30.1451 40.0471 30.098 39.9687 30.0662C39.8903 30.0345 39.8063 30.0189 39.7218 30.0202ZM31.6096 38.8794C31.1904 38.8794 30.7884 39.0459 30.492 39.3423C30.1956 39.6387 30.0291 40.0407 30.0291 40.4598C30.0291 40.879 30.1956 41.281 30.492 41.5774C30.7884 41.8738 31.1904 42.0403 31.6096 42.0403C31.8171 42.0403 32.0226 41.9994 32.2144 41.92C32.4061 41.8406 32.5803 41.7242 32.7271 41.5774C32.8739 41.4306 32.9903 41.2564 33.0697 41.0647C33.1491 40.8729 33.19 40.6674 33.19 40.4598C33.19 40.2523 33.1491 40.0468 33.0697 39.855C32.9903 39.6633 32.8739 39.4891 32.7271 39.3423C32.5803 39.1955 32.4061 39.0791 32.2144 38.9997C32.0226 38.9203 31.8171 38.8794 31.6096 38.8794Z" fill="white"/>
</g>
</svg>
